<?xml version="1.0" encoding="UTF-8"?>
<svg version="1.1" xmlns="http://www.w3.org/2000/svg"  width="280" height="130">
<path d="M0 0 C1.19012695 0.00773438 1.19012695 0.00773438 2.40429688 0.015625 C3.22865234 0.03625 4.05300781 0.056875 4.90234375 0.078125 C6.14467773 0.08585938 6.14467773 0.08585938 7.41210938 0.09375 C13.53039826 0.17340226 13.53039826 0.17340226 15.83984375 1.328125 C15.83984375 7.268125 15.83984375 13.208125 15.83984375 19.328125 C17.15984375 18.998125 18.47984375 18.668125 19.83984375 18.328125 C20.16984375 17.668125 20.49984375 17.008125 20.83984375 16.328125 C27.76984375 16.328125 34.69984375 16.328125 41.83984375 16.328125 C42.49984375 17.978125 43.15984375 19.628125 43.83984375 21.328125 C44.68546875 20.52375 45.53109375 19.719375 46.40234375 18.890625 C49.69135955 16.11183838 52.52613979 15.58694724 56.83984375 15.328125 C58.83984375 18.328125 58.83984375 18.328125 58.83984375 22.328125 C59.29488281 21.895 59.74992187 21.461875 60.21875 21.015625 C68.70147979 14.46009858 79.067137 15.15084745 89.28759766 15.97802734 C95.40148358 16.81668359 99.48197319 19.31639117 103.234375 24.109375 C105.20437536 27.2836512 106.5648294 30.82183554 107.83984375 34.328125 C107.97519531 33.75964844 108.11054688 33.19117188 108.25 32.60546875 C109.98557056 26.38027853 112.59371495 22.19313009 117.83984375 18.328125 C125.66298118 14.44964908 136.1347735 14.43091736 144.51953125 16.46484375 C150.55204028 18.70926209 155.08450186 22.16560902 158.83984375 27.328125 C158.87742798 26.15455444 158.87742798 26.15455444 158.91577148 24.95727539 C159.03134163 21.43487551 159.15424324 17.9127694 159.27734375 14.390625 C159.31666016 13.15892578 159.35597656 11.92722656 159.39648438 10.65820312 C159.43837891 9.48837891 159.48027344 8.31855469 159.5234375 7.11328125 C159.57842407 5.48724976 159.57842407 5.48724976 159.63452148 3.82836914 C159.83984375 1.328125 159.83984375 1.328125 160.83984375 0.328125 C162.38939934 0.22912977 163.94338048 0.19732976 165.49609375 0.1953125 C166.43582031 0.19402344 167.37554687 0.19273438 168.34375 0.19140625 C169.33246094 0.19527344 170.32117188 0.19914063 171.33984375 0.203125 C172.82291016 0.19732422 172.82291016 0.19732422 174.3359375 0.19140625 C175.74552734 0.19333984 175.74552734 0.19333984 177.18359375 0.1953125 C178.05177734 0.19644043 178.91996094 0.19756836 179.81445312 0.19873047 C181.83984375 0.328125 181.83984375 0.328125 182.83984375 1.328125 C182.99994856 4.06513678 183.09931203 6.7798009 183.15625 9.51953125 C183.1770311 10.33936996 183.19781219 11.15920868 183.21922302 12.00389099 C183.28480869 14.63271401 183.34364501 17.26164004 183.40234375 19.890625 C183.44552042 21.66863061 183.48913442 23.44662565 183.53320312 25.22460938 C183.64049918 29.59234134 183.74174079 33.96017727 183.83984375 38.328125 C184.04665771 37.69720947 184.25347168 37.06629395 184.46655273 36.41625977 C185.40037801 33.57335051 186.33879701 30.73197884 187.27734375 27.890625 C187.60283203 26.89740234 187.92832031 25.90417969 188.26367188 24.88085938 C188.73256836 23.46450195 188.73256836 23.46450195 189.2109375 22.01953125 C189.4989624 21.14498291 189.7869873 20.27043457 190.08374023 19.36938477 C190.83984375 17.328125 190.83984375 17.328125 191.83984375 16.328125 C193.17406693 16.21478736 194.51411352 16.1686359 195.85302734 16.15112305 C196.70416107 16.13828781 197.5552948 16.12545258 198.43222046 16.11222839 C199.35822052 16.10484146 200.28422058 16.09745453 201.23828125 16.08984375 C202.18418121 16.081772 203.13008118 16.07370026 204.10464478 16.06538391 C206.11043454 16.05152643 208.11624805 16.04081176 210.12207031 16.03295898 C213.19511401 16.01573558 216.26708515 15.97186337 219.33984375 15.92773438 C221.28514831 15.91760894 223.23046204 15.90909237 225.17578125 15.90234375 C226.09773285 15.88483566 227.01968445 15.86732758 227.96957397 15.84928894 C234.36537757 15.87111134 234.36537757 15.87111134 236.94384766 18.35473633 C237.38736572 19.33156372 237.38736572 19.33156372 237.83984375 20.328125 C238.49984375 19.668125 239.15984375 19.008125 239.83984375 18.328125 C242.83984375 16.328125 242.83984375 16.328125 250.83984375 16.328125 C250.83984375 21.938125 250.83984375 27.548125 250.83984375 33.328125 C246.11360216 34.95056614 241.75252495 36.34558876 236.83984375 37.328125 C236.50984375 60.098125 236.17984375 82.868125 235.83984375 106.328125 C222.30984375 106.328125 208.77984375 106.328125 194.83984375 106.328125 C192.32938561 100.05197966 190.03240557 94.09177369 188.21484375 87.640625 C188.01117188 86.93357422 187.8075 86.22652344 187.59765625 85.49804688 C187.00665584 83.44280508 186.42299153 81.38560759 185.83984375 79.328125 C185.17349785 76.99470004 184.50688116 74.66135238 183.83984375 72.328125 C183.80225952 73.81977173 183.80225952 73.81977173 183.76391602 75.34155273 C183.66999493 79.01861247 183.56973756 82.6954765 183.4675293 86.37231445 C183.42412229 87.966018 183.38245156 89.5597698 183.3425293 91.15356445 C183.28496568 93.43976408 183.22123226 95.72571949 183.15625 98.01171875 C183.13953751 98.72839218 183.12282501 99.44506561 183.10560608 100.18345642 C182.95371546 105.21425329 182.95371546 105.21425329 181.83984375 106.328125 C180.2781163 106.41498103 178.71255031 106.43514719 177.1484375 106.42578125 C176.20419922 106.42255859 175.25996094 106.41933594 174.28710938 106.41601562 C173.29388672 106.40763672 172.30066406 106.39925781 171.27734375 106.390625 C170.28025391 106.38611328 169.28316406 106.38160156 168.25585938 106.37695312 C165.78382888 106.36512523 163.31182903 106.34718915 160.83984375 106.328125 C159.84984375 100.883125 159.84984375 100.883125 158.83984375 95.328125 C157.89109375 96.565625 156.94234375 97.803125 155.96484375 99.078125 C150.85244636 104.82193402 145.82242975 106.91613335 138.21484375 107.703125 C129.43984823 107.98618937 121.55927886 107.46643563 114.74609375 101.4921875 C111.15781121 97.65390166 109.34294529 94.40109269 107.83984375 89.328125 C107.86304688 90.37613281 107.88625 91.42414063 107.91015625 92.50390625 C107.92891678 93.88280537 107.94711668 95.2617122 107.96484375 96.640625 C107.98160156 97.33091797 107.99835938 98.02121094 108.015625 98.73242188 C108.05202169 102.49947896 107.98363239 104.11244204 105.83984375 107.328125 C103.68505859 107.5769043 103.68505859 107.5769043 101.05078125 107.40234375 C100.10976562 107.34755859 99.16875 107.29277344 98.19921875 107.23632812 C97.214375 107.16349609 96.22953125 107.09066406 95.21484375 107.015625 C94.22226563 106.95439453 93.2296875 106.89316406 92.20703125 106.83007812 C89.7500759 106.67651842 87.29494218 106.50863765 84.83984375 106.328125 C84.83984375 104.678125 84.83984375 103.028125 84.83984375 101.328125 C84.38996094 101.76125 83.94007812 102.194375 83.4765625 102.640625 C78.52783103 106.92489754 74.93070035 108.13698013 68.38671875 107.703125 C63.99368357 107.05629773 61.30514893 106.12087268 58.44140625 102.6171875 C52.27579606 93.03019825 51.74191831 80.28395785 53.83984375 69.328125 C55.44849973 63.36230938 58.00538818 59.23406728 63.14453125 55.74609375 C77.24480243 48.328125 77.24480243 48.328125 83.83984375 48.328125 C83.50984375 43.708125 83.17984375 39.088125 82.83984375 34.328125 C81.51984375 34.328125 80.19984375 34.328125 78.83984375 34.328125 C78.73027344 34.96621094 78.62070313 35.60429688 78.5078125 36.26171875 C78.26998047 37.50115234 78.26998047 37.50115234 78.02734375 38.765625 C77.80111328 40.00119141 77.80111328 40.00119141 77.5703125 41.26171875 C77.32925781 41.94363281 77.08820313 42.62554687 76.83984375 43.328125 C72.99770001 44.60883958 69.34418483 44.55138483 65.33984375 44.578125 C64.56769531 44.59875 63.79554687 44.619375 63 44.640625 C57.30962798 44.68007299 57.30962798 44.68007299 55.07617188 43.00683594 C53.83984375 41.328125 53.83984375 41.328125 54.15234375 38.140625 C54.37921875 37.2125 54.60609375 36.284375 54.83984375 35.328125 C51.20984375 35.988125 47.57984375 36.648125 43.83984375 37.328125 C43.50984375 59.768125 43.17984375 82.208125 42.83984375 105.328125 C38.53977266 107.47816055 35.44329892 107.63458209 30.78515625 107.62890625 C29.61640457 107.63533394 29.61640457 107.63533394 28.42404175 107.64189148 C26.77830983 107.64762477 25.13255258 107.64814241 23.48681641 107.64379883 C20.98034967 107.64064451 18.47507043 107.6640895 15.96875 107.68945312 C14.3658869 107.69172693 12.76302064 107.69242924 11.16015625 107.69140625 C10.04424606 107.70522087 10.04424606 107.70522087 8.90579224 107.71931458 C4.13899699 107.67734104 0.7412617 107.12867607 -3.16015625 104.328125 C-7.28574942 98.0055674 -6.63516908 90.85102436 -6.671875 83.51953125 C-6.68874288 82.18430451 -6.70689593 80.84909345 -6.72627258 79.51390076 C-6.77355057 76.02056783 -6.80350257 72.52729848 -6.82971191 69.03375244 C-6.85963043 65.460525 -6.90612158 61.88751615 -6.95117188 58.31445312 C-7.03695163 51.31913545 -7.10440873 44.32374478 -7.16015625 37.328125 C-8.81015625 36.998125 -10.46015625 36.668125 -12.16015625 36.328125 C-12.16015625 31.048125 -12.16015625 25.768125 -12.16015625 20.328125 C-10.84015625 19.998125 -9.52015625 19.668125 -8.16015625 19.328125 C-8.12277344 18.20792969 -8.08539062 17.08773438 -8.046875 15.93359375 C-7.98121368 14.4609041 -7.91476639 12.98824934 -7.84765625 11.515625 C-7.81381836 10.40864258 -7.81381836 10.40864258 -7.77929688 9.27929688 C-7.50633796 3.7953042 -7.50633796 3.7953042 -5.88818359 1.61157227 C-3.75386623 0.02636368 -2.6368357 -0.03395947 0 0 Z M211.83984375 24.328125 C210.37743692 28.32307636 208.93582653 32.32476634 207.51245117 36.33374023 C207.02614442 37.69446238 206.53436063 39.05324069 206.03686523 40.40991211 C205.31971592 42.36858571 204.62302826 44.33357277 203.9296875 46.30078125 C203.50550537 47.47906494 203.08132324 48.65734863 202.64428711 49.87133789 C201.21266138 56.02320094 202.98392304 61.26143777 204.90625 67.13671875 C205.30908203 68.37744141 205.71191406 69.61816406 206.12695312 70.89648438 C206.55195805 72.18623921 206.97708981 73.47595225 207.40234375 74.765625 C207.83190735 76.08251046 208.26094859 77.39956642 208.68945312 78.71679688 C209.73446572 81.92228495 210.78474286 85.12594627 211.83984375 88.328125 C212.16984375 88.328125 212.49984375 88.328125 212.83984375 88.328125 C213.87223058 74.63241379 213.95916096 60.99502135 213.90234375 47.265625 C213.89731387 45.12695418 213.89275362 42.98828221 213.88867188 40.84960938 C213.87779528 35.67575197 213.86061447 30.50195175 213.83984375 25.328125 C213.17984375 24.998125 212.51984375 24.668125 211.83984375 24.328125 Z M131.83984375 33.328125 C127.61896381 37.54900494 128.85776187 45.84979376 128.82800293 51.62670898 C128.85881519 56.58977515 128.98420033 61.54910386 129.13671875 66.50976562 C129.2159872 69.11571597 129.28249781 71.72178725 129.34765625 74.328125 C129.39379179 75.98960403 129.44063934 77.65106348 129.48828125 79.3125 C129.5081308 80.08946228 129.52798035 80.86642456 129.5484314 81.66693115 C129.60252903 85.62751051 129.60252903 85.62751051 130.83984375 89.328125 C133.25630157 89.49499948 133.25630157 89.49499948 135.83984375 89.328125 C138.23671025 86.9312585 138.12265508 86.25784186 138.25390625 82.9765625 C138.29257813 82.12578125 138.33125 81.275 138.37109375 80.3984375 C138.40203125 79.50898437 138.43296875 78.61953125 138.46484375 77.703125 C138.52285156 76.35734375 138.52285156 76.35734375 138.58203125 74.984375 C138.67643732 72.7658323 138.76201123 70.54730097 138.83984375 68.328125 C143.27769985 67.21647268 147.60940761 67.21284737 152.15234375 67.265625 C152.89291016 67.27013672 153.63347656 67.27464844 154.39648438 67.27929688 C156.21097274 67.29100325 158.02541909 67.30893602 159.83984375 67.328125 C159.83984375 62.708125 159.83984375 58.088125 159.83984375 53.328125 C152.90984375 52.998125 145.97984375 52.668125 138.83984375 52.328125 C138.46484375 44.515625 138.46484375 44.515625 138.36181641 42.06713867 C138.1561711 38.35854421 137.93828738 36.47579044 135.83984375 33.328125 C134.51984375 33.328125 133.19984375 33.328125 131.83984375 33.328125 Z M15.83984375 37.328125 C15.83984375 54.488125 15.83984375 71.648125 15.83984375 89.328125 C17.15984375 89.658125 18.47984375 89.988125 19.83984375 90.328125 C19.83984375 72.838125 19.83984375 55.348125 19.83984375 37.328125 C18.51984375 37.328125 17.19984375 37.328125 15.83984375 37.328125 Z M81.83984375 60.328125 C78.74628215 63.22210198 77.00990262 65.08128664 76.67871094 69.45703125 C76.63343614 72.08086383 76.60462792 74.70393544 76.58984375 77.328125 C76.56921875 78.24335937 76.54859375 79.15859375 76.52734375 80.1015625 C76.5221875 80.98070313 76.51703125 81.85984375 76.51171875 82.765625 C76.50237305 83.56871094 76.49302734 84.37179688 76.48339844 85.19921875 C76.92007447 87.80731124 77.83014943 88.67792056 79.83984375 90.328125 C81.83967909 89.53694596 81.83967909 89.53694596 83.83984375 88.328125 C84.87932125 85.2096925 84.95479213 83.05336914 84.9375 79.78515625 C84.93427734 78.71201172 84.93105469 77.63886719 84.92773438 76.53320312 C84.91935547 75.41365234 84.91097656 74.29410156 84.90234375 73.140625 C84.89783203 72.00947266 84.89332031 70.87832031 84.88867188 69.71289062 C84.87687873 66.91791573 84.86042025 64.1230468 84.83984375 61.328125 C83.84984375 60.998125 82.85984375 60.668125 81.83984375 60.328125 Z " fill="#365486" transform="translate(21.16015625,12.671875)"/>

</svg>
